<svg width="331" height="331" viewBox="0 0 331 331" fill="none" xmlns="http://www.w3.org/2000/svg">
<g clip-path="url(#clip0_2_2)">
<rect width="331" height="331" rx="70" fill="white"/>
<rect width="331" height="331" fill="url(#paint0_linear_2_2)"/>
<path d="M103.6 230.62C93.52 230.62 84.76 229.18 77.32 226.3C70 223.42 64.42 219.58 60.58 214.78C56.74 209.98 54.82 204.82 54.82 199.3C54.82 194.74 56.02 191.26 58.42 188.86C60.82 186.34 64.48 185.08 69.4 185.08C69.4 195.28 72.46 203.08 78.58 208.48C84.7 213.76 93.28 216.4 104.32 216.4C114.88 216.4 122.98 214.66 128.62 211.18C134.26 207.58 137.08 202.3 137.08 195.34C137.08 191.14 136 187.72 133.84 185.08C131.8 182.32 128.26 179.98 123.22 178.06C118.3 176.02 111.16 173.98 101.8 171.94C90.76 169.54 82 166.78 75.52 163.66C69.04 160.42 64.3 156.52 61.3 151.96C58.3 147.4 56.8 141.76 56.8 135.04C56.8 128.32 58.66 122.44 62.38 117.4C66.22 112.24 71.62 108.28 78.58 105.52C85.54 102.76 93.64 101.38 102.88 101.38C111.64 101.38 119.44 102.64 126.28 105.16C133.24 107.56 138.64 111.04 142.48 115.6C146.44 120.04 148.42 125.08 148.42 130.72C148.42 134.2 147.28 136.96 145 139C142.84 140.92 139.42 141.88 134.74 141.88C133.42 132.76 130.18 126.1 125.02 121.9C119.98 117.7 112.6 115.6 102.88 115.6C93.52 115.6 86.32 117.28 81.28 120.64C76.24 123.88 73.72 128.5 73.72 134.5C73.72 138.7 74.62 142.18 76.42 144.94C78.34 147.58 81.52 149.86 85.96 151.78C90.52 153.7 96.88 155.56 105.04 157.36C117.28 160 126.88 162.94 133.84 166.18C140.92 169.42 146.02 173.38 149.14 178.06C152.26 182.74 153.82 188.5 153.82 195.34C153.82 206.26 149.26 214.9 140.14 221.26C131.02 227.5 118.84 230.62 103.6 230.62ZM174.44 115.42C174.44 110.86 175.88 107.38 178.76 104.98C181.64 102.58 185.84 101.38 191.36 101.38V158.08H255.26V115.42C255.26 110.86 256.7 107.38 259.58 104.98C262.46 102.58 266.66 101.38 272.18 101.38V216.58C272.18 221.14 270.74 224.62 267.86 227.02C264.98 229.42 260.78 230.62 255.26 230.62V173.02H191.36V216.58C191.36 221.14 189.92 224.62 187.04 227.02C184.16 229.42 179.96 230.62 174.44 230.62V115.42Z" fill="white"/>
</g>
<defs>
<linearGradient id="paint0_linear_2_2" x1="10" y1="5" x2="331" y2="331" gradientUnits="userSpaceOnUse">
<stop stop-color="#615FFF"/>
<stop offset="1" stop-color="#F6339A"/>
</linearGradient>
<clipPath id="clip0_2_2">
<rect width="331" height="331" rx="70" fill="white"/>
</clipPath>
</defs>
</svg>
